<?xml version="1.0" encoding="UTF-8"?>
<svg width="16px" height="19px" viewBox="0 0 16 19" version="1.1" xmlns="http://www.w3.org/2000/svg" xmlns:xlink="http://www.w3.org/1999/xlink">
    <!-- Generator: Sketch 60 (88103) - https://sketch.com -->
    <title>评价</title>
    <desc>Created with Sketch.</desc>
    <g id="页面-1" stroke="none" stroke-width="1" fill="none" fill-rule="evenodd">
        <g id="画板" transform="translate(-86.000000, -160.000000)" fill-rule="nonzero">
            <g id="评价" transform="translate(84.000000, 159.000000)">
                <rect id="矩形" fill="#000000" opacity="0" x="0" y="0" width="20" height="20"></rect>
                <path d="M3.69374747,13.4120997 L2.04685938,17.094075 C2.04685938,17.094075 1.75827838,17.7345599 2.61341417,18.1105999 C3.46854995,18.486704 3.9873723,18.1545493 4.06160111,18.089748 L5.66714273,16.6875592 L5.68701501,18.8045512 C5.68794584,18.9024161 5.78533733,19.5056028 6.64047311,19.8816214 C7.49563054,20.2577683 7.78416824,19.617262 7.78416824,19.617262 L9.28134317,16.2699651 C7.03090495,16.1006904 5.04843944,15.0201128 3.69372582,13.4120997 L3.69372582,13.4120997 L3.69374747,13.4120997 Z M16.3062588,13.4120997 L17.9531469,17.094075 C17.9531469,17.094075 18.2417063,17.7345599 17.3865921,18.1105999 C16.5314563,18.486704 16.0126124,18.1545493 15.9384052,18.089748 L14.3328419,16.6875592 L14.3129913,18.8045512 C14.3120821,18.9024161 14.214604,19.5056028 13.3595115,19.8816214 C12.5043541,20.2577683 12.2157948,19.617262 12.2157948,19.617262 L10.7186415,16.2699651 C12.9690797,16.1006904 14.9515885,15.0201128 16.3062805,13.4120997 L16.3062805,13.4120997 L16.3062588,13.4120997 Z M9.99999232,1 C14.0127857,1 17.2657998,4.21384477 17.2657998,8.17827244 C17.2657998,12.1427215 14.0127424,15.3565449 9.99999232,15.3565449 C5.98724229,15.3565449 2.7341848,12.1426787 2.7341848,8.17827244 C2.7341848,4.21380199 5.98722064,1 9.99999232,1 L9.99999232,1 Z M10.2884651,4.6590489 C10.2293245,4.55023406 10.1229493,4.48630961 9.99793582,4.4844949 C9.87290066,4.48271667 9.76475043,4.54351868 9.70238438,4.65057982 L8.59789262,6.54746127 C8.54686979,6.63506064 8.46748891,6.69030214 8.36680702,6.70826685 L6.36550831,7.06527279 C6.2424647,7.08721541 6.14812549,7.16743642 6.10773151,7.28433539 C6.06738082,7.40121297 6.09247012,7.52170488 6.17624541,7.61334631 L7.66092981,9.23727102 C7.7295303,9.31229509 7.75816976,9.40391513 7.74435874,9.50406842 L7.46963206,11.4947941 C7.45268217,11.6172108 7.50073932,11.7306452 7.60081508,11.8046854 C7.70089084,11.8787685 7.82460552,11.8923918 7.93875206,11.842005 L9.96083224,10.9488165 C10.0541973,10.9075618 10.1512857,10.9090161 10.2434386,10.9529013 L12.074957,11.8262431 C12.1875233,11.879902 12.3116493,11.8698075 12.4138248,11.7986972 C12.516022,11.7275227 12.5674562,11.6155427 12.5541863,11.4927196 L12.3192042,9.31678627 C12.3083589,9.21624802 12.3397259,9.12548344 12.4104911,9.05251247 L13.8171801,7.60147677 C13.9036397,7.5122734 13.9322358,7.39261557 13.8953271,7.27458311 C13.8584616,7.15650788 13.7665036,7.07365633 13.6441311,7.04816354 L11.4768404,6.59654343 C11.3767213,6.57571292 11.2990289,6.51818306 11.2506471,6.4291294 L10.2884867,4.6590489 L10.2884651,4.6590489 Z" id="形状" fill="#F5A623"></path>
            </g>
        </g>
    </g>
</svg>